<svg height="300px" viewBox="0 0 300 300" width="300px" xmlns="http://www.w3.org/2000/svg" xmlns:xlink="http://www.w3.org/1999/xlink"><defs><description>This ia a medal of honor awards for Alpha Test of NaturalDAO.</description><issuer class="tissuer">NaturalDAO Core Team</issuer> <honoree class="thonoree">Alpha Tester</honoree>
<style type="text/css">.ndao-1{fill:url(#c_335);}.ndao-2{fill:url(#c_52);}.ndao-3{fill:none;}.ndao-4{fill:url(#c_6);}.ndao-5{fill:#350989;}.tdao{text-anchor: middle;font-size: 40px;font-weight: bold;text-transform: uppercase;fill: none;stroke-width: 1px;stroke-dasharray: 90 310;animation: stroke 6s infinite linear;}.tevent1{stroke: #FFFFFF;text-shadow: 0 0 5px #FFFFFF;animation-delay: -1.5s;}.tevent2{stroke: #f39c12;text-shadow: 0 0 5px #f39c12;animation-delay: -3s;}.tevent3{stroke: #e74c3c;text-shadow: 0 0 5px #e74c3c;animation-delay: -4.5s;}.tevent4{stroke: #9b59b6;text-shadow: 0 0 5px #9b59b6;animation-delay: -6s;}@keyframes stroke{100% {stroke-dashoffset: -400;}}
</style>
<linearGradient gradientUnits="userSpaceOnUse" id="c_335" x1="58.01" x2="248.17" y1="45.76" y2="262.35"><stop offset="0" stop-color="#535353"></stop><stop offset="0.03" stop-color="#5e5e5e"></stop><stop offset="0.07" stop-color="#7b7b7c"></stop><stop offset="0.12" stop-color="#ababac"></stop><stop offset="0.19" stop-color="#ededee"></stop><stop offset="0.19" stop-color="#eeeeef"></stop><stop offset="0.28" stop-color="#c8c9ca"></stop><stop offset="0.39" stop-color="#464646"></stop><stop offset="0.62" stop-color="#888"></stop><stop offset="0.74" stop-color="#4d4d4d"></stop><stop offset="0.89" stop-color="#fff"></stop><stop offset="0.98" stop-color="#3f3f41"></stop></linearGradient><linearGradient gradientUnits="userSpaceOnUse" id="c_52" x1="28.52" x2="265.28" y1="63.57" y2="232.61"><stop offset="0.01" stop-color="#cfd0d0"></stop><stop offset="0.03" stop-color="#c9caca"></stop><stop offset="0.1" stop-color="#b5b5b6"></stop><stop offset="0.15" stop-color="#aeaeaf"></stop><stop offset="0.31" stop-color="#fff"></stop><stop offset="0.36" stop-color="#e2e3e3"></stop><stop offset="0.44" stop-color="#bababa"></stop><stop offset="0.51" stop-color="#9c9d9d"></stop><stop offset="0.57" stop-color="#8a8b8b"></stop><stop offset="0.62" stop-color="#848585"></stop><stop offset="0.67" stop-color="#9c9d9d"></stop><stop offset="0.77" stop-color="#dadada"></stop><stop offset="0.83" stop-color="#fff"></stop><stop offset="0.85" stop-color="#f4f4f4"></stop><stop offset="0.89" stop-color="#d5d5d6"></stop><stop offset="0.94" stop-color="#a4a5a5"></stop><stop offset="0.99" stop-color="#78797a"></stop></linearGradient><linearGradient gradientUnits="userSpaceOnUse" id="c_6" x1="54.04" x2="265.33" y1="98.27" y2="212.65"><stop offset="0" stop-color="#b1a287"></stop><stop offset="0" stop-color="#b5a68b"></stop><stop offset="0.01" stop-color="#c8b99e"></stop><stop offset="0.03" stop-color="#d6c7ac"></stop><stop offset="0.04" stop-color="#ded0b4"></stop><stop offset="0.07" stop-color="#e0d2b6"></stop><stop offset="0.07" stop-color="#e0d2b5"></stop><stop offset="0.13" stop-color="#d9c7a3"></stop><stop offset="0.17" stop-color="#d6c39d"></stop><stop offset="0.22" stop-color="#c9b793"></stop><stop offset="0.34" stop-color="#ad9b7d"></stop><stop offset="0.44" stop-color="#9b8b70"></stop><stop offset="0.51" stop-color="#95856b"></stop><stop offset="0.57" stop-color="#a09076"></stop><stop offset="0.67" stop-color="#bdae93"></stop><stop offset="0.77" stop-color="#e0d2b6"></stop><stop offset="0.98" stop-color="#aa9b80"></stop></linearGradient> <path d="M15,190  c-10,-220  255,-220  250,-7" id="tcircle"></path><path d="M55,225  c22,50  140,50  170,2" id="tcircle2"></path></defs>
<title></title>
<path class="ndao-1" d="M180.3,13.85A139.52,139.52,0,1,0,118.61,286C190.87,302.36,268,258.25,285.52,180.76A139.52,139.52,0,0,0,180.3,13.85Zm-30.83,243A106.94,106.94,0,1,1,256.4,149.92,106.94,106.94,0,0,1,149.47,256.86Z" transform="translate(-9.91 -10.37)"></path><path class="ndao-2" d="M149.46,15.91a134,134,0,1,0,134,134A134,134,0,0,0,149.46,15.91Zm0,241A106.94,106.94,0,1,1,256.4,149.92,106.94,106.94,0,0,1,149.47,256.86Z" transform="translate(-9.91 -10.37)"></path><path class="ndao-3" d="M283.46,149.92a134,134,0,1,1-134-134A134,134,0,0,1,283.46,149.92Z" transform="translate(-9.91 -10.37)"></path><path class="ndao-4" d="M256.4,149.92A106.94,106.94,0,1,1,149.47,43,106.94,106.94,0,0,1,256.4,149.92Z" transform="translate(-9.91 -10.37)"></path><path class="ndao-5" d="M148.73,148.9l24.05-37.26L184.5,73s-21.69-4.59-36-16.17C134.3,68.45,113,73,113,73l11.72,38.6Z" transform="translate(-9.91 -10.37)"></path><path class="ndao-5" d="M148.73,148.9l2.58,44.27,13.32,38.08s20.22-9.1,38.57-8.18c4.66-17.75,19.18-34,19.18-34l-32.25-24.25Z" transform="translate(-9.91 -10.37)"></path><path class="ndao-5" d="M148.73,148.9l-41.36,16L75.2,189.24s14.85,16.46,19.59,34.22c18.33-1,38.29,7.83,38.29,7.83l13.21-38.12Z" transform="translate(-9.91 -10.37)"></path><path class="ndao-5" d="M148.73,148.9l-27.9-34.47-33-23.17s-11.12,19.17-26.57,29.13c6.56,17.14,4.27,38.84,4.27,38.84l40.33.9Z" transform="translate(-9.91 -10.37)"></path><path class="ndao-5" d="M148.73,148.9l42.81,11.57,40.34-.59s-2.23-22,4.45-39.17c-15.36-10-26.23-29-26.23-29l-33.2,22.91Z" transform="translate(-9.91 -10.37)"></path> <text class="tdao tevent1" text-anchor="middle" x="48%" y="52%">Alpha Test</text><text class="tdao tevent2" text-anchor="middle" x="48%" y="52%">Alpha Test</text><text class="tdao tevent3" text-anchor="middle" x="48%" y="52%">Alpha Test</text><text class="tdao tevent4" onclick="javascript:alert('多谢合作！')" text-anchor="middle" x="48%" y="52%">Alpha Test</text><text style="fill:#545454" text-anchor="middle"><textPath startOffset="50%" xlink:href="#tcircle">Commemorative NaturalDAO Token</textPath></text><text style="fill:#545454" text-anchor="middle"><textPath startOffset="50%" xlink:href="#tcircle2">September 19th, 2019</textPath></text><artist>Tung Sau Chun Queena</artist></svg>
